<svg width="44" height="34" viewBox="0 0 44 34" fill="none" xmlns="http://www.w3.org/2000/svg">
<path d="M43.2052 4.69345L39.3446 0.801237C38.8152 0.267146 38.1715 0 37.4147 0C36.6573 0 36.0135 0.267146 35.4841 0.801237L16.8619 19.6044L8.51608 11.1615C7.98613 10.6272 7.34273 10.3603 6.58599 10.3603C5.82875 10.3603 5.18535 10.6272 4.6554 11.1615L0.794824 15.0538C0.264875 15.588 0 16.2369 0 17.0002C0 17.7629 0.264875 18.4124 0.794824 18.9465L11.0708 29.3065L14.9316 33.1987C15.4613 33.7332 16.1049 34 16.8619 34C17.6187 34 18.2623 33.7325 18.7922 33.1987L22.653 29.3065L43.2052 8.58596C43.7346 8.05167 44 7.4029 44 6.63955C44.0004 5.87661 43.7346 5.22774 43.2052 4.69345Z" fill="#B6C40B"/>
</svg>
