<svg width="35" height="35" viewBox="0 0 35 35" fill="none" xmlns="http://www.w3.org/2000/svg">
<path d="M0.993125 30.1388L4.6271 33.8248C5.96482 35.1819 8.149 35.197 9.50565 33.8602L17.4398 26.038L25.2589 33.9706C26.5975 35.3276 28.7817 35.3428 30.1379 34.0051L33.8224 30.3736C35.1795 29.0359 35.1954 26.8517 33.8569 25.4938L26.0373 17.5613L33.9723 9.74011C35.3284 8.40239 35.3453 6.21822 34.0059 4.8603L30.3737 1.17414C29.0353 -0.181958 26.8511 -0.19809 25.4949 1.13879L17.5595 8.96099L9.7402 1.02768C8.40164 -0.328551 6.21733 -0.344543 4.86081 0.992334L1.17675 4.62449C-0.180326 5.96305 -0.196739 8.14638 1.1414 9.5043L8.96136 17.4376L1.02848 25.2607C-0.328603 26.5975 -0.345015 28.7826 0.993125 30.1388Z" fill="#C4370B"/>
</svg>
